# xmcd
#
# Track frame offsets: 
#        150
#        10630
#        23706
#        42652
#        56596
#        70055
#        78966
#        96994
#        116405
#        128088
#
# Disc length: 1913 seconds
#
# Revision: 0
# Processed by: cddbd v1.5.2PL0 Copyright (c) Steve Scherf et al.
# Submitted via: ExactAudioCopyFreeDBPlugin 1.0
#
DISCID=7807770a
DTITLE=Lincoln Durham - Exodus Of The Deemed Unrighteous
DYEAR=2013
DGENRE=Blues
TTITLE0=Ballad of The Prodigal Son
TTITLE1=Rise In The River
TTITLE2=Annie Departee
TTITLE3=Beautifully Sewn, Violently Torn
TTITLE4=Stupid Man
TTITLE5=Strike Us Down
TTITLE6=Keep On Allie
TTITLE7=Sinner
TTITLE8=Exodus Waltz
TTITLE9=Mama
EXTD=
EXTT0=
EXTT1=
EXTT2=
EXTT3=
EXTT4=
EXTT5=
EXTT6=
EXTT7=
EXTT8=
EXTT9=
PLAYORDER=
